# Blender v3.0.1 OBJ File: ''
# www.blender.org
mtllib gemstone_5.mtl
o Cube.005
v 69.023712 -22.320555 -696.863831
v 67.023712 -22.320555 -696.863831
v 67.023712 -22.320555 -694.863831
v 69.023712 -22.320555 -694.863831
v 69.023712 -24.320555 -694.863831
v 67.023712 -24.320555 -694.863831
v 67.023712 -24.320555 -696.863831
v 69.023712 -24.320555 -696.863831
vt 0.625000 0.500000
vt 0.875000 0.500000
vt 0.875000 0.750000
vt 0.625000 0.750000
vt 0.375000 0.750000
vt 0.625000 1.000000
vt 0.375000 1.000000
vt 0.375000 0.000000
vt 0.625000 0.000000
vt 0.625000 0.250000
vt 0.375000 0.250000
vt 0.125000 0.500000
vt 0.375000 0.500000
vt 0.125000 0.750000
vn 0.0000 1.0000 0.0000
vn 0.0000 0.0000 1.0000
vn -1.0000 0.0000 0.0000
vn 0.0000 -1.0000 0.0000
vn 1.0000 0.0000 0.0000
vn 0.0000 0.0000 -1.0000
usemtl Material.005
s off
f 1/1/1 2/2/1 3/3/1 4/4/1
f 5/5/2 4/4/2 3/6/2 6/7/2
f 6/8/3 3/9/3 2/10/3 7/11/3
f 7/12/4 8/13/4 5/5/4 6/14/4
f 8/13/5 1/1/5 4/4/5 5/5/5
f 7/11/6 2/10/6 1/1/6 8/13/6
o Penta
v -1.009007 6.058964 40.814491
v 81.762726 31.958624 41.171185
v -0.064976 92.781158 41.486931
v 49.202724 -64.656364 40.362453
v -52.748203 -63.545128 40.178375
v -83.197357 33.756660 40.873337
v 0.391323 127.792252 0.100277
v 114.950165 42.640617 -0.341873
v 69.366058 -92.620262 -1.474220
v -73.365204 -91.064552 -1.731911
v -115.993927 45.157936 -0.758804
v 0.116787 95.663788 -41.807133
v 84.056366 33.271439 -42.131062
v -0.851597 6.703463 -42.496967
v -85.161041 35.115891 -42.436604
v -53.926060 -64.697083 -43.149570
v 50.655972 -65.836975 -42.960728
vt 0.625000 0.500000
vt 0.625000 0.500000
vt 0.625000 0.500000
vt 0.625000 0.500000
vt 0.625000 0.500000
vt 0.625000 0.500000
vt 0.625000 0.500000
vt 0.625000 0.500000
vt 0.625000 0.500000
vt 0.625000 0.500000
vt 0.625000 0.500000
vt 0.625000 0.500000
vt 0.625000 0.500000
vt 0.625000 0.500000
vt 0.625000 0.500000
vt 0.625000 0.500000
vt 0.625000 0.500000
vn -0.0019 -0.0077 1.0000
vn 0.4937 0.6612 0.5648
vn 0.7848 -0.2692 0.5582
vn -0.0101 -0.8336 0.5523
vn -0.7925 -0.2520 0.5553
vn -0.4812 0.6719 0.5631
vn 0.0019 0.0077 -1.0000
vn -0.4888 0.6939 -0.5288
vn -0.8064 -0.2485 -0.5367
vn -0.0082 -0.8418 -0.5397
vn -0.0082 -0.8418 -0.5398
vn 0.8027 -0.2660 -0.5338
vn 0.5057 0.6831 -0.5270
usemtl Purple
s 1
f 9/15/7 10/16/7 11/17/7
f 9/15/7 12/18/7 10/16/7
f 9/15/7 13/19/7 12/18/7
f 9/15/7 14/20/7 13/19/7
f 9/15/7 11/17/7 14/20/7
f 15/21/8 10/16/8 16/22/8
f 15/21/8 11/17/8 10/16/8
f 16/22/9 12/18/9 17/23/9
f 16/22/9 10/16/9 12/18/9
f 17/23/10 13/19/10 18/24/10
f 17/23/10 12/18/10 13/19/10
f 18/24/11 14/20/11 19/25/11
f 18/24/11 13/19/11 14/20/11
f 19/25/12 11/17/12 15/21/12
f 19/25/12 14/20/12 11/17/12
f 20/26/13 21/27/13 22/28/13
f 22/28/13 23/29/13 20/26/13
f 24/30/13 23/29/13 22/28/13
f 25/31/13 22/28/13 21/27/13
f 24/30/13 22/28/13 25/31/13
f 23/29/14 15/21/14 20/26/14
f 23/29/14 19/25/14 15/21/14
f 24/30/15 19/25/15 23/29/15
f 24/30/15 18/24/15 19/25/15
f 25/31/16 18/24/16 24/30/16
f 25/31/16 17/23/17 18/24/16
f 21/27/18 17/23/18 25/31/18
f 21/27/18 16/22/18 17/23/18
f 20/26/19 16/22/19 21/27/19
f 20/26/19 15/21/19 16/22/19
