# Blender v3.0.1 OBJ File: ''
# www.blender.org
mtllib untitled.mtl
o Cube.001
v 23.640259 1.000123 -753.324707
v 21.640259 1.000123 -753.324707
v 21.640259 1.000122 -751.324707
v 23.640259 1.000122 -751.324707
v 23.640259 -0.999878 -751.324707
v 21.640259 -0.999878 -751.324707
v 21.640259 -0.999877 -753.324707
v 23.640259 -0.999877 -753.324707
vt 0.625000 0.500000
vt 0.875000 0.500000
vt 0.875000 0.750000
vt 0.625000 0.750000
vt 0.375000 0.750000
vt 0.625000 1.000000
vt 0.375000 1.000000
vt 0.375000 0.000000
vt 0.625000 0.000000
vt 0.625000 0.250000
vt 0.375000 0.250000
vt 0.125000 0.500000
vt 0.375000 0.500000
vt 0.125000 0.750000
vn 0.0000 1.0000 0.0000
vn 0.0000 0.0000 1.0000
vn -1.0000 0.0000 0.0000
vn 0.0000 -1.0000 -0.0000
vn 1.0000 0.0000 0.0000
vn 0.0000 0.0000 -1.0000
usemtl Material.001
s off
f 1/1/1 2/2/1 3/3/1 4/4/1
f 5/5/2 4/4/2 3/6/2 6/7/2
f 6/8/3 3/9/3 2/10/3 7/11/3
f 7/12/4 8/13/4 5/5/4 6/14/4
f 8/13/5 1/1/5 4/4/5 5/5/5
f 7/11/6 2/10/6 1/1/6 8/13/6
o _4_Side_Diamond
v 102.506424 58.275261 97.765656
v -97.488922 58.687569 96.474335
v 2.803955 -111.514664 -2.886166
v 103.797729 58.282318 -102.230255
v -96.197617 58.694626 -103.521515
v -52.636658 135.119507 52.356915
v -51.918823 135.123444 -58.823135
v 59.260956 134.894226 -58.105362
v 58.543091 134.890305 53.074688
vt 0.625000 0.500000
vt 0.625000 0.500000
vt 0.625000 0.500000
vt 0.625000 0.500000
vt 0.625000 0.500000
vt 0.625000 0.500000
vt 0.625000 0.500000
vt 0.625000 0.500000
vt 0.625000 0.500000
vn -0.0066 -0.5070 0.8619
vn 0.8609 -0.5088 0.0055
vn -0.8630 -0.5052 -0.0056
vn -0.8638 0.5037 -0.0056
vn 0.0021 1.0000 0.0000
vn 0.8659 0.5002 0.0056
vn -0.0045 0.5019 0.8649
vn 0.0066 0.5020 -0.8649
vn 0.0045 -0.5070 -0.8619
usemtl Green
s 1
f 9/15/7 10/16/7 11/17/7
f 12/18/8 9/15/8 11/17/8
f 10/16/9 13/19/9 11/17/9
f 14/20/10 13/19/10 10/16/10
f 14/20/10 15/21/10 13/19/10
f 14/20/11 16/22/11 15/21/11
f 14/20/11 17/23/11 16/22/11
f 16/22/12 9/15/12 12/18/12
f 16/22/12 17/23/12 9/15/12
f 17/23/13 10/16/13 9/15/13
f 17/23/13 14/20/13 10/16/13
f 15/21/14 12/18/14 13/19/14
f 15/21/14 16/22/14 12/18/14
f 13/19/15 12/18/15 11/17/15
