# Blender v3.0.1 OBJ File: ''
# www.blender.org
mtllib gemstone_2.mtl
o Cube.001
v 23.640259 1.000123 -753.324707
v 21.640259 1.000123 -753.324707
v 21.640259 1.000122 -751.324707
v 23.640259 1.000122 -751.324707
v 23.640259 -0.999878 -751.324707
v 21.640259 -0.999878 -751.324707
v 21.640259 -0.999877 -753.324707
v 23.640259 -0.999877 -753.324707
vt 0.625000 0.500000
vt 0.875000 0.500000
vt 0.875000 0.750000
vt 0.625000 0.750000
vt 0.375000 0.750000
vt 0.625000 1.000000
vt 0.375000 1.000000
vt 0.375000 0.000000
vt 0.625000 0.000000
vt 0.625000 0.250000
vt 0.375000 0.250000
vt 0.125000 0.500000
vt 0.375000 0.500000
vt 0.125000 0.750000
vn 0.0000 1.0000 0.0000
vn 0.0000 0.0000 1.0000
vn -1.0000 0.0000 0.0000
vn 0.0000 -1.0000 -0.0000
vn 1.0000 0.0000 0.0000
vn 0.0000 0.0000 -1.0000
usemtl Material.001
s off
f 1/1/1 2/2/1 3/3/1 4/4/1
f 5/5/2 4/4/2 3/6/2 6/7/2
f 6/8/3 3/9/3 2/10/3 7/11/3
f 7/12/4 8/13/4 5/5/4 6/14/4
f 8/13/5 1/1/5 4/4/5 5/5/5
f 7/11/6 2/10/6 1/1/6 8/13/6
o Cube.002
v 27.426947 -8.091170 -739.752136
v 25.426947 -8.091170 -739.752136
v 25.426947 -8.091171 -737.752136
v 27.426947 -8.091171 -737.752136
v 27.426947 -10.091171 -737.752136
v 25.426947 -10.091171 -737.752136
v 25.426947 -10.091170 -739.752136
v 27.426947 -10.091170 -739.752136
vt 0.625000 0.500000
vt 0.875000 0.500000
vt 0.875000 0.750000
vt 0.625000 0.750000
vt 0.375000 0.750000
vt 0.625000 1.000000
vt 0.375000 1.000000
vt 0.375000 0.000000
vt 0.625000 0.000000
vt 0.625000 0.250000
vt 0.375000 0.250000
vt 0.125000 0.500000
vt 0.375000 0.500000
vt 0.125000 0.750000
vn 0.0000 1.0000 0.0000
vn 0.0000 0.0000 1.0000
vn -1.0000 0.0000 0.0000
vn 0.0000 -1.0000 -0.0000
vn 1.0000 0.0000 0.0000
vn 0.0000 0.0000 -1.0000
usemtl Material.002
s off
f 9/15/7 10/16/7 11/17/7 12/18/7
f 13/19/8 12/18/8 11/20/8 14/21/8
f 14/22/9 11/23/9 10/24/9 15/25/9
f 15/26/10 16/27/10 13/19/10 14/28/10
f 16/27/11 9/15/11 12/18/11 13/19/11
f 15/25/12 10/24/12 9/15/12 16/27/12
o SphereGemSmall
v 0.829230 -104.360641 -0.657377
v 53.078682 -49.041222 71.904701
v -52.065239 -49.090141 71.473366
v 85.980354 -49.048897 -27.958883
v -84.147148 -49.128090 -28.658468
v 1.171271 -49.102570 -90.110710
v 85.712593 40.406750 27.297724
v 0.394171 40.381290 88.750053
v -84.414909 40.327587 26.598261
v -51.513176 40.319855 -73.265327
v 53.630684 40.368805 -72.833992
v 0.736273 95.639359 -0.703365
vt 0.625000 0.500000
vt 0.625000 0.500000
vt 0.625000 0.500000
vt 0.625000 0.500000
vt 0.625000 0.500000
vt 0.625000 0.500000
vt 0.625000 0.500000
vt 0.625000 0.500000
vt 0.625000 0.500000
vt 0.625000 0.500000
vt 0.625000 0.500000
vt 0.625000 0.500000
vn -0.0021 -0.7945 0.6072
vn 0.5769 -0.7943 0.1901
vn -0.5777 -0.7949 0.1854
vn -0.3544 -0.7949 -0.4924
vn 0.3592 -0.7946 -0.4895
vn 0.9330 -0.1871 0.3074
vn -0.0039 -0.1874 0.9823
vn -0.9353 -0.1880 0.2997
vn -0.5740 -0.1880 -0.7970
vn 0.5807 -0.1875 -0.7922
vn 0.5740 0.1880 0.7970
vn -0.5807 0.1875 0.7922
vn -0.9330 0.1871 -0.3074
vn 0.0039 0.1874 -0.9823
vn 0.9353 0.1880 -0.2997
vn 0.3544 0.7949 0.4924
vn -0.3592 0.7946 0.4895
vn -0.5769 0.7943 -0.1901
vn 0.0021 0.7945 -0.6072
vn 0.5777 0.7949 -0.1854
usemtl Pink
s 1
f 17/29/13 18/30/13 19/31/13
f 18/30/14 17/29/14 20/32/14
f 17/29/15 19/31/15 21/33/15
f 17/29/16 21/33/16 22/34/16
f 17/29/17 22/34/17 20/32/17
f 18/30/18 20/32/18 23/35/18
f 19/31/19 18/30/19 24/36/19
f 21/33/20 19/31/20 25/37/20
f 22/34/21 21/33/21 26/38/21
f 20/32/22 22/34/22 27/39/22
f 18/30/23 23/35/23 24/36/23
f 19/31/24 24/36/24 25/37/24
f 21/33/25 25/37/25 26/38/25
f 22/34/26 26/38/26 27/39/26
f 20/32/27 27/39/27 23/35/27
f 24/36/28 23/35/28 28/40/28
f 25/37/29 24/36/29 28/40/29
f 26/38/30 25/37/30 28/40/30
f 27/39/31 26/38/31 28/40/31
f 23/35/32 27/39/32 28/40/32
