# Blender v3.0.1 OBJ File: ''
# www.blender.org
mtllib gemstone_8.mtl
o Cube.008
v 23.640259 1.000123 -753.324707
v 21.640259 1.000123 -753.324707
v 21.640259 1.000122 -751.324707
v 23.640259 1.000122 -751.324707
v 23.640259 -0.999878 -751.324707
v 21.640259 -0.999878 -751.324707
v 21.640259 -0.999877 -753.324707
v 23.640259 -0.999877 -753.324707
vt 0.625000 0.500000
vt 0.875000 0.500000
vt 0.875000 0.750000
vt 0.625000 0.750000
vt 0.375000 0.750000
vt 0.625000 1.000000
vt 0.375000 1.000000
vt 0.375000 0.000000
vt 0.625000 0.000000
vt 0.625000 0.250000
vt 0.375000 0.250000
vt 0.125000 0.500000
vt 0.375000 0.500000
vt 0.125000 0.750000
vn 0.0000 1.0000 0.0000
vn 0.0000 0.0000 1.0000
vn -1.0000 0.0000 0.0000
vn 0.0000 -1.0000 -0.0000
vn 1.0000 0.0000 0.0000
vn 0.0000 0.0000 -1.0000
usemtl Material.008
s off
f 1/1/1 2/2/1 3/3/1 4/4/1
f 5/5/2 4/4/2 3/6/2 6/7/2
f 6/8/3 3/9/3 2/10/3 7/11/3
f 7/12/4 8/13/4 5/5/4 6/14/4
f 8/13/5 1/1/5 4/4/5 5/5/5
f 7/11/6 2/10/6 1/1/6 8/13/6
o SphereGemLarge
v 1.935042 -109.913544 -2.026308
v 49.259140 -93.296394 32.356262
v -16.140823 -93.296394 53.606388
v 82.448227 -48.407661 56.469250
v 96.583542 -57.143860 -2.026299
v -56.561050 -93.296082 -2.026305
v -16.140823 -93.296379 -57.658993
v 49.259140 -93.296379 -36.408871
v 107.755844 1.352870 32.356461
v -28.817703 -48.407700 92.622383
v 31.183517 -57.144089 87.989510
v 1.935042 1.352858 109.240128
v -97.584549 -48.407196 -2.026298
v -74.637344 -57.143929 53.606575
v -103.885757 1.352870 32.356461
v -28.817703 -48.407639 -96.674980
v -74.637344 -57.143909 -57.659172
v -63.465744 1.352921 -92.042709
v 82.448227 -48.407642 -60.521900
v 31.183517 -57.144028 -92.042168
v 67.335800 1.352921 -92.042709
v 67.335800 1.352860 87.990067
v -63.465744 1.352860 87.990067
v -103.885757 1.352881 -36.409039
v 1.935042 1.352924 -113.292709
v 107.755844 1.352881 -36.409039
v 32.687729 51.113449 92.622398
v 78.507370 59.849663 53.606594
v 20.010849 96.002129 53.606480
v -78.578140 51.113396 56.469265
v -27.313431 59.849777 87.989532
v -45.389114 96.002129 32.356354
v -78.578140 51.113411 -60.521885
v -92.713516 59.849609 -2.026280
v -45.389114 96.002144 -36.408779
v 32.687729 51.113480 -96.674965
v -27.313431 59.849808 -92.042145
v 20.010849 96.002144 -57.658901
v 101.454575 51.112976 -2.026281
v 78.507370 59.849678 -57.659153
v 60.431076 96.001831 -2.026213
v 1.935042 112.619263 -2.026210
vt 0.625000 0.500000
vt 0.625000 0.500000
vt 0.625000 0.500000
vt 0.625000 0.500000
vt 0.625000 0.500000
vt 0.625000 0.500000
vt 0.625000 0.500000
vt 0.625000 0.500000
vt 0.625000 0.500000
vt 0.625000 0.500000
vt 0.625000 0.500000
vt 0.625000 0.500000
vt 0.625000 0.500000
vt 0.625000 0.500000
vt 0.625000 0.500000
vt 0.625000 0.500000
vt 0.625000 0.500000
vt 0.625000 0.500000
vt 0.625000 0.500000
vt 0.625000 0.500000
vt 0.625000 0.500000
vt 0.625000 0.500000
vt 0.625000 0.500000
vt 0.625000 0.500000
vt 0.625000 0.500000
vt 0.625000 0.500000
vt 0.625000 0.500000
vt 0.625000 0.500000
vt 0.625000 0.500000
vt 0.625000 0.500000
vt 0.625000 0.500000
vt 0.625000 0.500000
vt 0.625000 0.500000
vt 0.625000 0.500000
vt 0.625000 0.500000
vt 0.625000 0.500000
vt 0.625000 0.500000
vt 0.625000 0.500000
vt 0.625000 0.500000
vt 0.625000 0.500000
vt 0.625000 0.500000
vt 0.625000 0.500000
vn 0.1024 -0.9435 0.3151
vn 0.7002 -0.6617 0.2680
vn -0.2680 -0.9435 0.1947
vn -0.2680 -0.9435 -0.1947
vn 0.1024 -0.9435 -0.3151
vn 0.9050 -0.3304 0.2680
vn 0.0247 -0.3304 0.9435
vn -0.8897 -0.3304 0.3151
vn -0.5746 -0.3304 -0.7488
vn 0.5346 -0.3304 -0.7779
vn 0.8026 -0.1256 0.5831
vn -0.3066 -0.1256 0.9435
vn -0.9921 -0.1256 -0.0000
vn -0.3066 -0.1256 -0.9435
vn 0.8026 -0.1256 -0.5831
vn 0.4089 0.6617 0.6284
vn -0.4713 0.6617 0.5831
vn -0.7002 0.6617 -0.2680
vn 0.0385 0.6617 -0.7488
vn 0.7240 0.6617 -0.1947
vn 0.2680 0.9435 -0.1947
vn 0.4911 0.7947 -0.3568
vn 0.4089 0.6617 -0.6284
vn -0.1024 0.9435 -0.3151
vn -0.1876 0.7947 -0.5773
vn -0.4713 0.6617 -0.5831
vn -0.3313 0.9435 0.0000
vn -0.6071 0.7947 0.0000
vn -0.7002 0.6617 0.2680
vn -0.1024 0.9435 0.3151
vn -0.1876 0.7947 0.5773
vn 0.0385 0.6617 0.7488
vn 0.2680 0.9435 0.1947
vn 0.4911 0.7947 0.3568
vn 0.7240 0.6617 0.1947
vn 0.8897 0.3304 -0.3151
vn 0.7947 0.1876 -0.5773
vn 0.5746 0.3304 -0.7488
vn -0.0247 0.3304 -0.9435
vn -0.3035 0.1876 -0.9342
vn -0.5346 0.3304 -0.7779
vn -0.9050 0.3304 -0.2680
vn -0.9822 0.1876 0.0000
vn -0.9050 0.3304 0.2680
vn -0.5346 0.3304 0.7779
vn -0.3035 0.1876 0.9342
vn -0.0247 0.3304 0.9435
vn 0.5746 0.3304 0.7488
vn 0.7947 0.1876 0.5773
vn 0.8897 0.3304 0.3151
vn 0.3066 0.1256 -0.9435
vn 0.3035 -0.1876 -0.9342
vn 0.0247 -0.3304 -0.9435
vn -0.8026 0.1256 -0.5831
vn -0.7947 -0.1876 -0.5773
vn -0.8897 -0.3304 -0.3151
vn -0.8026 0.1256 0.5831
vn -0.7947 -0.1876 0.5773
vn -0.5746 -0.3304 0.7488
vn 0.3066 0.1256 0.9435
vn 0.3035 -0.1876 0.9342
vn 0.5346 -0.3304 0.7779
vn 0.9921 0.1256 0.0000
vn 0.9822 -0.1876 -0.0000
vn 0.9050 -0.3304 -0.2680
vn 0.4713 -0.6617 -0.5831
vn 0.1876 -0.7947 -0.5773
vn -0.0385 -0.6617 -0.7488
vn -0.4089 -0.6617 -0.6284
vn -0.4911 -0.7947 -0.3568
vn -0.7240 -0.6617 -0.1947
vn -0.7240 -0.6617 0.1947
vn -0.4911 -0.7947 0.3568
vn -0.4089 -0.6617 0.6284
vn 0.7002 -0.6617 -0.2680
vn 0.6071 -0.7947 0.0000
vn 0.3313 -0.9435 0.0000
vn -0.0385 -0.6617 0.7488
vn 0.1876 -0.7947 0.5773
vn 0.4713 -0.6617 0.5831
usemtl Green.001
s 1
f 9/15/7 10/16/7 11/17/7
f 12/18/8 10/16/8 13/19/8
f 9/15/9 11/17/9 14/20/9
f 9/15/10 14/20/10 15/21/10
f 9/15/11 15/21/11 16/22/11
f 12/18/12 13/19/12 17/23/12
f 18/24/13 19/25/13 20/26/13
f 21/27/14 22/28/14 23/29/14
f 24/30/15 25/31/15 26/32/15
f 27/33/16 28/34/16 29/35/16
f 12/18/17 17/23/17 30/36/17
f 18/24/18 20/26/18 31/37/18
f 21/27/19 23/29/19 32/38/19
f 24/30/20 26/32/20 33/39/20
f 27/33/21 29/35/21 34/40/21
f 35/41/22 36/42/22 37/43/22
f 38/44/23 39/45/23 40/46/23
f 41/47/24 42/48/24 43/49/24
f 44/50/25 45/51/25 46/52/25
f 47/53/26 48/54/26 49/55/26
f 49/55/27 46/52/27 50/56/27
f 49/55/28 48/54/28 46/52/28
f 48/54/29 44/50/29 46/52/29
f 46/52/30 43/49/30 50/56/30
f 46/52/31 45/51/31 43/49/31
f 45/51/32 41/47/32 43/49/32
f 43/49/33 40/46/33 50/56/33
f 43/49/34 42/48/34 40/46/34
f 42/48/35 38/44/35 40/46/35
f 40/46/36 37/43/36 50/56/36
f 40/46/37 39/45/37 37/43/37
f 39/45/38 35/41/38 37/43/38
f 37/43/39 49/55/39 50/56/39
f 37/43/40 36/42/40 49/55/40
f 36/42/41 47/53/41 49/55/41
f 34/40/42 48/54/42 47/53/42
f 34/40/43 29/35/43 48/54/43
f 29/35/44 44/50/44 48/54/44
f 33/39/45 45/51/45 44/50/45
f 33/39/46 26/32/46 45/51/46
f 26/32/47 41/47/47 45/51/47
f 32/38/48 42/48/48 41/47/48
f 32/38/49 23/29/49 42/48/49
f 23/29/50 38/44/50 42/48/50
f 31/37/51 39/45/51 38/44/51
f 31/37/52 20/26/52 39/45/52
f 20/26/53 35/41/53 39/45/53
f 30/36/54 36/42/54 35/41/54
f 30/36/55 17/23/55 36/42/55
f 17/23/56 47/53/56 36/42/56
f 29/35/57 33/39/57 44/50/57
f 29/35/58 28/34/58 33/39/58
f 28/34/59 24/30/59 33/39/59
f 26/32/60 32/38/60 41/47/60
f 26/32/61 25/31/61 32/38/61
f 25/31/62 21/27/62 32/38/62
f 23/29/63 31/37/63 38/44/63
f 23/29/64 22/28/64 31/37/64
f 22/28/65 18/24/65 31/37/65
f 20/26/66 30/36/66 35/41/66
f 20/26/67 19/25/67 30/36/67
f 19/25/68 12/18/68 30/36/68
f 17/23/69 34/40/69 47/53/69
f 17/23/70 13/19/70 34/40/70
f 13/19/71 27/33/71 34/40/71
f 16/22/72 28/34/72 27/33/72
f 16/22/73 15/21/73 28/34/73
f 15/21/74 24/30/74 28/34/74
f 15/21/75 25/31/75 24/30/75
f 15/21/76 14/20/76 25/31/76
f 14/20/77 21/27/77 25/31/77
f 14/20/78 22/28/78 21/27/78
f 14/20/79 11/17/79 22/28/79
f 11/17/80 18/24/80 22/28/80
f 13/19/81 16/22/81 27/33/81
f 13/19/82 10/16/82 16/22/82
f 10/16/83 9/15/83 16/22/83
f 11/17/84 19/25/84 18/24/84
f 11/17/85 10/16/85 19/25/85
f 10/16/86 12/18/86 19/25/86
